<svg width="60" height="60" viewBox="0 0 60 60" fill="none" xmlns="http://www.w3.org/2000/svg">
<g id="iconmonstr-headphones-14 1">
<path id="Vector" d="M11.29 52.5C3.9125 50.975 0 44.775 0 38.75C0 32.2125 4.3275 25.755 13.2075 25C9.67 28.9775 7.5 34.27 7.5 40C7.5 44.455 9.045 49 11.29 52.5ZM60 38.75C60 44.7725 56.125 50.9725 48.75 52.5C50.9925 49 52.5 44.455 52.5 40C52.5 34.27 50.33 28.9775 46.7925 25C55.6725 25.7575 60 32.215 60 38.75ZM47.315 20.0325C49.67 20.2425 51.77 20.7675 53.6375 21.535C50.4625 10.565 41.9725 2.5 30 2.5C18.035 2.5 9.5675 10.5625 6.395 21.5175C8.255 20.76 10.35 20.2375 12.695 20.03C16.0625 13.685 22.3 9.93 30 9.945C37.7025 9.93 43.945 13.685 47.315 20.0325ZM31.6675 34.4175C31.615 34.32 32.165 34.2675 32.265 34.2675C32.3725 34.28 31.98 34.925 31.6675 34.4175ZM28.53 29.935L28.6875 29.89L28.6125 30.0875C28.7375 30.315 28.6425 30.45 28.6225 30.5725L28.405 30.7075C28.3275 30.805 28.78 30.815 28.785 30.83C28.8 30.88 28.2375 30.96 28.3425 31.08C28.4825 31.2775 29.5425 30.795 29.375 30.8225C29.7025 30.6575 29.4175 30.64 29.235 30.545C29.1725 30.2325 29.12 29.7475 28.925 29.555L29.0525 29.405C28.7525 28.97 28.53 29.935 28.53 29.935ZM47.5 40C47.5 49.665 39.665 57.5 30 57.5C20.335 57.5 12.5 49.665 12.5 40C12.5 30.335 20.335 22.5 30 22.5C39.665 22.5 47.5 30.335 47.5 40ZM35.3825 32.1675C35.375 31.955 35.105 31.7525 34.825 32.1225C34.6275 32.3775 34.6625 32.7625 34.5575 32.935C34.405 33.19 35.385 33.43 35.385 33.19C35.4225 32.785 36.4525 33.0975 36.655 33.1525C37.0175 33.255 37.5925 32.825 36.9625 32.5975C36.4425 32.41 36.17 32.2075 36.125 31.8375L36.28 31.595C35.9575 31.63 35.3825 32.7375 35.3825 32.1675ZM44.5625 40C44.5625 38.49 44.305 36.9675 44.0425 36.1625C43.9575 35.9075 43.7675 35.705 43.52 35.61C43.1475 35.465 41.57 36.48 41.3325 35.98L40.4975 35.99C40.3225 35.8925 39.835 35.24 39.615 35.32C39.165 35.48 40.305 36.725 40.6175 36.8875C40.9125 36.665 41.86 36.21 42.065 36.8325C42.455 38.005 40.99 39.2875 40.24 39.9675C39.12 40.98 39.33 39.3125 38.5675 38.725C38.165 38.4175 38.17 37.7625 37.7675 37.535C37.585 37.4325 36.755 36.4775 36.765 36.3475L36.74 36.59C36.6025 36.695 36.3125 36.2 36.28 36.1225C36.28 36.5525 36.98 37.2375 37.21 37.58C37.605 38.1725 37.8175 39.0325 38.3025 39.515C38.5625 39.775 39.555 40.8475 39.8125 40.825L41.14 40.195C42.0775 40.4175 38.93 44.87 38.6325 45.42C38.385 45.8825 38.8325 47.025 38.7975 47.5725C38.755 48.2025 38.2575 48.4075 37.7875 48.7525C37.2825 49.12 37.4 49.84 36.9775 50.1025C36.225 50.5675 35.68 52.075 34.61 52.0675C34.295 52.065 32.9475 52.5925 32.7725 52.0775C32.635 51.705 32.4525 51.42 32.2575 51.0525L32 50C31.84 49.7775 31.3075 49.275 31.26 49.0125C31.2575 48.785 31.43 48.1 31.67 47.98C32.005 47.81 31.735 47.3125 31.6925 47.0225C31.6225 46.505 31.3025 46.0825 30.9175 45.7825C30.35 45.3475 30.6425 45 30.7775 44.375C30.7775 44.0775 30.5975 43.6875 30.1975 43.8025C29.375 44.0425 29.625 43.16 29.025 43.2C28.5925 43.2325 28.24 43.505 27.8375 43.625C27.3325 43.775 26.815 43.505 26.3175 43.4425C24.265 43.1825 23.5975 40.8375 24.13 39.1475L24.06 38.1425C24.29 37.63 24.76 37.0525 25.17 36.665C25.4 36.445 25.6975 36.5025 25.9675 36.3325C26.385 36.07 26.3925 35.5275 26.8025 35.1925C27.385 34.72 28.1825 34.7275 28.9425 34.6275C29.3475 34.575 30.89 34.24 31.1325 34.54C31.1325 34.595 31.4125 35.4225 31.105 35.375C31.735 35.41 32.635 36.4675 33.235 36.22C33.5425 36.0925 33.43 35.145 34.0625 35.6025C34.445 35.8775 36.155 36 36.5125 35.705C36.73 35.525 36.855 34.35 36.5875 34.2175C36.7575 34.385 35.6975 34.3975 35.5975 34.36C35.4225 34.295 35.2575 34.525 34.9775 34.3975C35.1475 34.4775 34.0375 33.88 34.66 33.425L33.875 33.5825L33.6875 33.9825C33.2475 34.2075 32.915 33.2175 32.75 33.105C32.5825 32.995 31.2725 32.075 31.6275 32.675L32.7775 33.82C32.72 33.8575 32.475 33.4025 32.475 33.735C32.5525 33.5375 32.505 34.5775 32.3225 34.24L32.33 33.85L31.9325 33.52C31.75 33.295 31.265 32.795 31.0025 32.6775C30.93 32.6425 29.89 32.8025 29.8025 32.8375L29.5425 33.2925L28.9325 33.605L28.7025 34.12C28.6025 34.2075 27.5875 34.545 27.5825 34.5575C27.625 34.4475 26.8725 34.3075 26.92 34.0875C26.975 33.8475 27.2325 33.0975 27.165 32.8225C27.095 32.535 28.73 33.2375 28.8375 32.48C28.88 32.1525 28.905 31.77 28.38 31.7125C28.48 31.725 29.395 31.3525 29.545 31.1875C29.76 30.9425 30.2475 30.5425 30.6 30.5425C31.015 30.5425 30.925 29.94 31.115 29.645C31.3075 29.7225 31.0125 30.195 31.2425 30.385C31.23 30.235 31.8925 30.4675 31.9575 30.435C32.11 30.3525 32.955 30.4 32.825 30.0025C32.68 29.5975 32.9 29.7175 33.0875 29.635C33.055 29.6475 33.5825 28.7325 33.675 29.0325C33.6125 28.7225 33.06 29.14 32.8675 29.125C32.4225 29.09 32.61 28.3675 32.78 28.155C32.91 27.9875 32.425 27.7825 32.42 28.1025C32.4125 28.5825 31.965 29.0175 32.0675 29.655C32.225 30.6175 30.995 29.4225 30.8875 29.49C30.4775 29.7375 30.145 29.1775 30.3575 28.8425L31.3075 28.15C31.4575 27.89 31.635 27.5875 31.8675 27.3925C32.6475 26.7375 32.8625 27.2625 33.64 27.3325C34.4 27.4025 33.8975 27.5125 33.7925 27.805C33.69 28.0825 34.21 28.18 34.39 27.95C34.4925 27.8175 34.725 27.48 34.8225 27.23C34.9525 26.9075 36.1375 26.9425 35.31 26.45C34.765 26.125 32.3875 25.47 30.795 25.47C30.45 25.47 30.21 25.8525 29.9475 26.07C29.4275 26.5 28.1 27.345 27.3575 27.0875C26.6 26.8275 24.98 28.05 24.72 28.06C24.6225 28.0625 24.7225 27.135 25.24 27.0675C25.0175 27.1 27.06 26.035 27.005 25.815C26.9375 25.5525 22.9225 27.0125 23.1025 27.3075C23.1875 27.44 23.5375 27.44 23.08 27.735C22.8175 27.8925 22.5375 28.9025 22.29 28.9025C21.555 29.225 21.5075 28.27 20.6875 29.5L19.385 30.025C17.45 32.08 16.1075 34.6875 15.625 37.5825C15.605 37.6975 16.11 37.9125 16.1775 37.9925C16.34 38.1875 16.34 39.0325 16.4225 39.3075C16.6225 40.005 17.12 40.3925 17.5025 41.0275C17.7275 41.405 18.1 42.36 17.9825 42.7575C18.14 42.4975 19.545 43.9475 19.8 44.2475C20.4025 44.9575 20.87 45.8175 19.8875 46.52C19.5725 46.7475 20.3675 48.1675 19.9575 48.515L19.4325 48.65C18.9125 48.97 19.1475 49.7525 19.4625 50.0825C22.115 52.855 25.85 54.585 29.99 54.585C38.04 54.5675 44.5625 48.045 44.5625 40ZM27.7825 30.73C27.965 30.65 28.21 30.6525 28.235 30.41L28.3525 30.265L28.1925 30.05L27.975 30.2025L27.87 30.23L27.77 30.3575L27.78 30.4275L27.6525 30.5825C27.53 30.7025 27.6575 30.7825 27.7825 30.73Z" fill="white"/>
</g>
</svg>
