<svg width="60" height="60" viewBox="0 0 60 60" fill="none" xmlns="http://www.w3.org/2000/svg">
<g id="iconmonstr-help-3 1" clip-path="url(#clip0_3_997)">
<path id="Vector" d="M30 5C43.785 5 55 16.215 55 30C55 43.785 43.785 55 30 55C16.215 55 5 43.785 5 30C5 16.215 16.215 5 30 5ZM30 0C13.4325 0 0 13.4325 0 30C0 46.5675 13.4325 60 30 60C46.5675 60 60 46.5675 60 30C60 13.4325 46.5675 0 30 0ZM33.125 42.5C33.125 44.225 31.7275 45.625 30 45.625C28.2775 45.625 26.875 44.225 26.875 42.5C26.875 40.775 28.2775 39.375 30 39.375C31.7275 39.375 33.125 40.775 33.125 42.5ZM36.6075 17.505C35.0875 15.965 32.82 15.1175 30.23 15.1175C24.78 15.1175 21.255 18.9925 21.255 24.9925H26.2825C26.2825 21.2775 28.355 19.96 30.1275 19.96C31.7125 19.96 33.395 21.0125 33.5375 23.025C33.6925 25.1425 32.5625 26.2175 31.1325 27.5775C27.6025 30.935 27.5375 32.56 27.5525 36.2475H32.565C32.5325 34.5875 32.64 33.24 34.9025 30.8025C36.595 28.9775 38.7 26.7075 38.7425 23.2475C38.77 20.9375 38.0325 18.95 36.6075 17.505Z" fill="white"/>
</g>
<defs>
<clipPath id="clip0_3_997">
<rect width="60" height="60" fill="white"/>
</clipPath>
</defs>
</svg>
