<svg width="16" height="15" viewBox="0 0 16 15" fill="none" xmlns="http://www.w3.org/2000/svg">
<path id="Vector" d="M8.00037 0C12.1392 0 15.5 3.36084 15.5 7.49963C15.5 11.6392 12.1392 15 8.00037 15C3.86084 15 0.5 11.6392 0.5 7.49963C0.5 3.36084 3.86084 0 8.00037 0ZM4.21268 7.79145L7.10165 10.3646C7.20818 10.4606 7.34246 10.5071 7.47599 10.5071C7.62753 10.5071 7.77982 10.4464 7.8901 10.3256L12.356 5.44261C12.4542 5.33533 12.503 5.2003 12.503 5.06602C12.503 4.75844 12.2547 4.50563 11.9419 4.50563C11.7888 4.50563 11.638 4.56714 11.5263 4.68792L7.43548 9.16054L4.96137 6.95649C4.85334 6.86122 4.72055 6.81395 4.58702 6.81395C4.27569 6.81395 4.02588 7.06527 4.02588 7.37359C4.02588 7.52738 4.0889 7.68042 4.21268 7.79145Z" fill="black"/>
</svg>
